<svg width="297" height="30" viewBox="0 0 297 30" version="1.1" xmlns="http://www.w3.org/2000/svg"><title>Artboard</title><g id="Page-1" stroke="none" stroke-width="1" fill="none" fill-rule="evenodd"><g id="Artboard" fill="#FBAB35"><text id="LEORMEDIULISSE" font-family="Open Sans" font-size="18" font-weight="bold" letter-spacing="6.08"><tspan x="65" y="22">LEORMEDIULISS</tspan> <tspan x="286.396" y="22">E</tspan></text><g id="noun_124324_cc"><path d="M23.313.11C10.485.11.73 4.7.213 10.865v.025c-.013.16-.024 7.517-.024 7.517-.002 6.423 9.94 11.267 23.123 11.267 13.184 0 23.125-4.844 23.125-11.267V11.38c0-6.425-9.942-11.27-23.125-11.27zm0 4.864c10.914 0 18.713 3.664 19.693 7.218-1.06 3.533-8.848 7.15-19.693 7.15-10.834 0-18.608-3.61-19.68-7.14.966-3.557 8.754-7.228 19.68-7.228zm19.822 13.433c0 3.766-8.14 7.963-19.82 7.963-11.682 0-19.823-4.197-19.823-7.963l.002-1.055c3.977 3.226 11.206 5.295 19.82 5.295 8.616 0 15.844-2.07 19.82-5.296v1.056z" id="Shape"/><path d="M7.785 15.216l18 .366h.018c.09 0 .18-.02.264-.048h.01l13.648-4.48c.384-.126.62-.51.56-.908-.06-.398-.397-.695-.8-.703l-18.002-.365c-.015 0-.03.007-.046.008-.082 0-.164.014-.244.04l-13.65 4.48c-.38.126-.617.51-.558.908.06.397.397.694.8.703zm26.818-4.22l-8.53 2.8-2.72-3.028 11.25.228z" id="Shape"/></g></g></g></svg>