<?xml version="1.0" encoding="UTF-8" standalone="no"?>
<svg width="297px" height="30px" viewBox="0 0 297 30" version="1.1" xmlns="http://www.w3.org/2000/svg" xmlns:xlink="http://www.w3.org/1999/xlink" xmlns:sketch="http://www.bohemiancoding.com/sketch/ns">
    <!-- Generator: Sketch 3.3.3 (12081) - http://www.bohemiancoding.com/sketch -->
    <title>Artboard</title>
    <desc>Created with Sketch.</desc>
    <defs></defs>
    <g id="Page-1" stroke="none" stroke-width="1" fill="none" fill-rule="evenodd" sketch:type="MSPage">
        <g id="Artboard" sketch:type="MSArtboardGroup" fill="#FFFFFF">
            <text id="LEORMEDIULISSE" sketch:type="MSTextLayer" font-family="Open Sans" font-size="18" font-weight="bold" letter-spacing="6.07999992">
                <tspan x="65" y="22">LEORMEDIULISS</tspan>
                <tspan x="286.396444" y="22">E</tspan>
            </text>
            <g id="noun_124324_cc" sketch:type="MSLayerGroup">
                <path d="M23.313,0.111 C10.4845,0.111 0.729,4.6985 0.213,10.864 L0.212,10.864 L0.212,10.889 C0.1995,11.051 0.1885,18.4065 0.1885,18.4065 C0.1885,24.83 10.13,29.674 23.3135,29.674 C36.497,29.674 46.4385,24.83 46.4385,18.4065 L46.4385,11.3785 C46.438,4.955 36.4965,0.111 23.313,0.111 L23.313,0.111 Z M23.313,4.974 C34.227,4.974 42.0265,8.638 43.006,12.192 C41.947,15.7245 34.158,19.343 23.313,19.343 C12.4785,19.343 4.7045,15.732 3.634,12.2025 C4.5995,8.645 12.387,4.974 23.313,4.974 L23.313,4.974 Z M43.1345,18.4065 C43.1345,22.173 34.9945,26.3705 23.3135,26.3705 C11.633,26.3705 3.4925,22.173 3.4925,18.4065 L3.4945,17.3525 C7.4715,20.5775 14.6995,22.647 23.3135,22.647 C31.9295,22.647 39.1585,20.577 43.1345,17.351 L43.1345,18.4065 L43.1345,18.4065 Z" id="Shape" sketch:type="MSShapeGroup"></path>
                <path d="M7.785,15.2165 L25.786,15.582 L25.803,15.582 C25.8945,15.582 25.983,15.5635 26.067,15.5345 C26.07,15.533 26.0735,15.534 26.0765,15.533 L39.725,11.0535 C40.109,10.9285 40.3445,10.545 40.2845,10.1465 C40.225,9.7485 39.888,9.4515 39.4845,9.443 L21.4835,9.078 C21.468,9.0785 21.4525,9.0845 21.437,9.086 C21.355,9.087 21.273,9.1 21.193,9.127 L7.544,13.6065 C7.1615,13.732 6.9255,14.115 6.985,14.5135 C7.0445,14.9105 7.3825,15.208 7.785,15.2165 L7.785,15.2165 Z M34.6035,10.996 L26.0735,13.795 L23.3535,10.7675 L34.6035,10.996 L34.6035,10.996 Z" id="Shape" sketch:type="MSShapeGroup"></path>
            </g>
        </g>
    </g>
</svg>